<svg xmlns="http://www.w3.org/2000/svg" width="118.156" height="113.25" viewBox="0 0 118.156 113.25"><path id="_-e-形狀_1" data-name="-e-形狀 1" d="M545.115 5608.78c0-6.04 7.13-10.87 8.9-16.32 1.831-5.65-1.034-13.74 2.383-18.44 3.451-4.75 12.051-4.5 16.793-7.96 4.7-3.42 7.1-11.7 12.744-13.53 5.442-1.77 12.228 3.45 18.26 3.45s12.818-5.22 18.26-3.45c5.641 1.83 8.049 10.11 12.744 13.53 4.742 3.46 13.342 3.21 16.793 7.96 3.417 4.7.552 12.79 2.383 18.44 1.767 5.45 8.9 10.28 8.9 16.32s-7.131 10.87-8.9 16.32c-1.831 5.65 1.034 13.74-2.383 18.44-3.451 4.75-12.051 4.5-16.793 7.96-4.7 3.42-7.1 11.7-12.744 13.53-5.443 1.77-12.228-3.45-18.26-3.45s-12.818 5.22-18.26 3.45c-5.641-1.83-8.049-10.11-12.744-13.53-4.742-3.46-13.342-3.21-16.793-7.96-3.417-4.7-.552-12.79-2.383-18.44-1.77-5.45-8.9-10.28-8.9-16.32z" transform="translate(-545.125 -5552.16)" fill="#fff" fill-rule="evenodd"/></svg>